<mxfile host="app.diagrams.net" agent="Mozilla/5.0 (Windows NT 10.0; Win64; x64) AppleWebKit/537.36 (KHTML, like Gecko) Chrome/132.0.0.0 Safari/537.36" version="26.0.10">
  <diagram name="Pagina-1" id="3nllavdbQIHSaqIBzN0_">
    <mxGraphModel dx="836" dy="469" grid="1" gridSize="10" guides="1" tooltips="1" connect="1" arrows="1" fold="1" page="1" pageScale="1" pageWidth="827" pageHeight="1169" math="0" shadow="0">
      <root>
        <mxCell id="0" />
        <mxCell id="1" parent="0" />
        <mxCell id="ntcjfKkI45fizvCsekUN-3" value="" style="edgeStyle=orthogonalEdgeStyle;rounded=0;orthogonalLoop=1;jettySize=auto;html=1;" edge="1" parent="1" source="ntcjfKkI45fizvCsekUN-1" target="ntcjfKkI45fizvCsekUN-2">
          <mxGeometry relative="1" as="geometry" />
        </mxCell>
        <mxCell id="ntcjfKkI45fizvCsekUN-1" value="dieren memory" style="rounded=0;whiteSpace=wrap;html=1;" vertex="1" parent="1">
          <mxGeometry x="400" y="10" width="120" height="60" as="geometry" />
        </mxCell>
        <mxCell id="ntcjfKkI45fizvCsekUN-5" value="" style="edgeStyle=orthogonalEdgeStyle;rounded=0;orthogonalLoop=1;jettySize=auto;html=1;" edge="1" parent="1" source="ntcjfKkI45fizvCsekUN-2" target="ntcjfKkI45fizvCsekUN-4">
          <mxGeometry relative="1" as="geometry" />
        </mxCell>
        <mxCell id="ntcjfKkI45fizvCsekUN-2" value="kaartjes worden geschud en op een random plaats gezet" style="whiteSpace=wrap;html=1;rounded=0;" vertex="1" parent="1">
          <mxGeometry x="500" y="180" width="120" height="60" as="geometry" />
        </mxCell>
        <mxCell id="ntcjfKkI45fizvCsekUN-22" value="" style="edgeStyle=orthogonalEdgeStyle;rounded=0;orthogonalLoop=1;jettySize=auto;html=1;" edge="1" parent="1" source="ntcjfKkI45fizvCsekUN-4" target="ntcjfKkI45fizvCsekUN-21">
          <mxGeometry relative="1" as="geometry" />
        </mxCell>
        <mxCell id="ntcjfKkI45fizvCsekUN-24" value="" style="edgeStyle=orthogonalEdgeStyle;rounded=0;orthogonalLoop=1;jettySize=auto;html=1;" edge="1" parent="1" source="ntcjfKkI45fizvCsekUN-4" target="ntcjfKkI45fizvCsekUN-23">
          <mxGeometry relative="1" as="geometry" />
        </mxCell>
        <mxCell id="ntcjfKkI45fizvCsekUN-4" value="gebruiker klikt op kaartjes om om te draaien" style="whiteSpace=wrap;html=1;rounded=0;" vertex="1" parent="1">
          <mxGeometry x="500" y="270" width="120" height="60" as="geometry" />
        </mxCell>
        <mxCell id="ntcjfKkI45fizvCsekUN-6" value="als het fout is worden de kaartjes terug omgedraaid" style="whiteSpace=wrap;html=1;rounded=0;" vertex="1" parent="1">
          <mxGeometry x="500" y="460" width="120" height="60" as="geometry" />
        </mxCell>
        <mxCell id="ntcjfKkI45fizvCsekUN-8" value="als het juist is worden de kaartjes bij de verzameling van de gebruiker gestoken onderaan de pagina" style="whiteSpace=wrap;html=1;rounded=0;" vertex="1" parent="1">
          <mxGeometry x="240" y="350" width="120" height="130" as="geometry" />
        </mxCell>
        <mxCell id="ntcjfKkI45fizvCsekUN-18" value="" style="edgeStyle=orthogonalEdgeStyle;rounded=0;orthogonalLoop=1;jettySize=auto;html=1;" edge="1" parent="1" source="ntcjfKkI45fizvCsekUN-15" target="ntcjfKkI45fizvCsekUN-17">
          <mxGeometry relative="1" as="geometry" />
        </mxCell>
        <mxCell id="ntcjfKkI45fizvCsekUN-20" value="" style="edgeStyle=orthogonalEdgeStyle;rounded=0;orthogonalLoop=1;jettySize=auto;html=1;" edge="1" parent="1" source="ntcjfKkI45fizvCsekUN-15" target="ntcjfKkI45fizvCsekUN-19">
          <mxGeometry relative="1" as="geometry" />
        </mxCell>
        <mxCell id="ntcjfKkI45fizvCsekUN-15" value="omgedraaide kaartjes" style="whiteSpace=wrap;html=1;rounded=0;" vertex="1" parent="1">
          <mxGeometry x="50" y="140" width="120" height="60" as="geometry" />
        </mxCell>
        <mxCell id="ntcjfKkI45fizvCsekUN-17" value="afbeelding van dieren op kaartjes" style="whiteSpace=wrap;html=1;rounded=0;" vertex="1" parent="1">
          <mxGeometry x="50" y="40" width="120" height="60" as="geometry" />
        </mxCell>
        <mxCell id="ntcjfKkI45fizvCsekUN-19" value="geluid van dier afspelen als kaart wordt omgedraaid" style="whiteSpace=wrap;html=1;rounded=0;" vertex="1" parent="1">
          <mxGeometry x="50" y="250" width="120" height="60" as="geometry" />
        </mxCell>
        <mxCell id="ntcjfKkI45fizvCsekUN-26" style="edgeStyle=orthogonalEdgeStyle;rounded=0;orthogonalLoop=1;jettySize=auto;html=1;exitX=0.75;exitY=1;exitDx=0;exitDy=0;entryX=0.75;entryY=0;entryDx=0;entryDy=0;" edge="1" parent="1" source="ntcjfKkI45fizvCsekUN-21" target="ntcjfKkI45fizvCsekUN-6">
          <mxGeometry relative="1" as="geometry" />
        </mxCell>
        <mxCell id="ntcjfKkI45fizvCsekUN-28" value="" style="edgeStyle=orthogonalEdgeStyle;rounded=0;orthogonalLoop=1;jettySize=auto;html=1;" edge="1" parent="1" source="ntcjfKkI45fizvCsekUN-21" target="ntcjfKkI45fizvCsekUN-27">
          <mxGeometry relative="1" as="geometry" />
        </mxCell>
        <mxCell id="ntcjfKkI45fizvCsekUN-21" value="foute combinatie" style="whiteSpace=wrap;html=1;rounded=0;" vertex="1" parent="1">
          <mxGeometry x="500" y="350" width="120" height="60" as="geometry" />
        </mxCell>
        <mxCell id="ntcjfKkI45fizvCsekUN-25" style="edgeStyle=orthogonalEdgeStyle;rounded=0;orthogonalLoop=1;jettySize=auto;html=1;exitX=0;exitY=0.75;exitDx=0;exitDy=0;" edge="1" parent="1" source="ntcjfKkI45fizvCsekUN-23" target="ntcjfKkI45fizvCsekUN-8">
          <mxGeometry relative="1" as="geometry" />
        </mxCell>
        <mxCell id="ntcjfKkI45fizvCsekUN-30" value="" style="edgeStyle=orthogonalEdgeStyle;rounded=0;orthogonalLoop=1;jettySize=auto;html=1;" edge="1" parent="1" source="ntcjfKkI45fizvCsekUN-23" target="ntcjfKkI45fizvCsekUN-29">
          <mxGeometry relative="1" as="geometry" />
        </mxCell>
        <mxCell id="ntcjfKkI45fizvCsekUN-23" value="juiste combinatie" style="whiteSpace=wrap;html=1;rounded=0;" vertex="1" parent="1">
          <mxGeometry x="360" y="270" width="120" height="60" as="geometry" />
        </mxCell>
        <mxCell id="ntcjfKkI45fizvCsekUN-27" value="ezel geluid wordt afgespeeld" style="whiteSpace=wrap;html=1;rounded=0;" vertex="1" parent="1">
          <mxGeometry x="650" y="350" width="120" height="60" as="geometry" />
        </mxCell>
        <mxCell id="ntcjfKkI45fizvCsekUN-29" value="geluid van kat die spint wordt afgespeeld" style="whiteSpace=wrap;html=1;rounded=0;" vertex="1" parent="1">
          <mxGeometry x="370" y="360" width="120" height="60" as="geometry" />
        </mxCell>
      </root>
    </mxGraphModel>
  </diagram>
</mxfile>
